<svg xmlns="http://www.w3.org/2000/svg" width="32.787" height="44.053" viewBox="0 0 32.787 44.053">
  <g id="Group_2793" data-name="Group 2793" transform="translate(-854.129 -289.677)">
    <g id="Group_2792" data-name="Group 2792">
      <path id="Path_6222" data-name="Path 6222" d="M393.879,134.3l.09-.09H383.045c0-1.536-.08-3.006.019-4.465a5.225,5.225,0,0,1,3.326-4.763c1.65-.7,3.341-1.3,5-1.978a.661.661,0,0,1,.842.182c.742.756,1.506,1.489,2.269,2.224.8.778,1.344.775,2.115-.014.69-.709,1.4-1.4,2.048-2.15a.82.82,0,0,1,1.121-.225c1.435.616,2.884,1.207,4.348,1.757a5.459,5.459,0,0,1,3.431,3.227l1.633-1.657a6.985,6.985,0,0,0-.485-.8c-1.95-2.776-5.613-3.568-8.572-4.781a.871.871,0,0,1-.5-.521c-.05-.375-.159-.8.318-1.095a6.829,6.829,0,0,0,2.789-3.405.972.972,0,0,1,.616-.507,3.687,3.687,0,0,0,1.94-6.312,1.247,1.247,0,0,1-.266-.792,15.969,15.969,0,0,0-.443-4.842c-2.4-7.135-12.446-8.5-16.835-2.489-.04.055-.08.111-.118.166-1.446,2.075-1.5,4.69-1.565,7.125a1.611,1.611,0,0,1-.389.944,3.615,3.615,0,0,0-.872,3.637,3.378,3.378,0,0,0,2.762,2.494,1.1,1.1,0,0,1,.955.8,6.067,6.067,0,0,0,2.485,3.044.975.975,0,0,1,.514,1.2,1.25,1.25,0,0,1-.693.6c-1.721.7-3.59,1.234-5.271,2.1a9.121,9.121,0,0,0-4.271,4.423c-.762,2.133-.543,4.613-.543,6.843v2.25h15.311Zm9.368-24a1.243,1.243,0,0,1,.967,1.193,1.38,1.38,0,0,1-.967,1.466Zm-15.339,2.632a1.251,1.251,0,0,1-1.017-1.252,1.328,1.328,0,0,1,1.017-1.409Zm7.659,10.428c-.778-.994-2.233-1.466-1.683-3.1h3.422C397.736,121.88,396.169,122.282,395.567,123.364Zm-7.222-16.039c-.228-2.891.6-5.375,3.1-6.973a7.233,7.233,0,0,1,8.2-.014c2.5,1.588,3.351,4.066,3.121,6.98a4.081,4.081,0,0,1-3.137-3.073c-.183-.512-.346-1.006-.972-1.128-.65-.125-1.012.273-1.375.716a9.383,9.383,0,0,1-5.587,3.014C390.609,107.081,389.484,107.167,388.346,107.325Zm1.892,6.357c-.043-1.42-.009-2.843-.009-4.32a14.039,14.039,0,0,0,7.823-3.09A6.669,6.669,0,0,0,400.745,109a.579.579,0,0,1,.227.443c-.009,1.472.035,2.948-.086,4.412a4.518,4.518,0,0,1-3.986,4.124c-1.807.23-3.6.216-5.081-1.115A4.366,4.366,0,0,1,390.238,113.682Z" transform="translate(473.407 192.659)" fill="#7a7a7a"/>
    </g>
    <path id="Path_6223" data-name="Path 6223" d="M483.008,269.4l1.922,1.943-11.067,11.07-5.679-5.548,2-2,3.72,3.775Z" transform="translate(450.099 -21.065) rotate(9)" fill="#08b902"/>
  </g>
</svg>
