<svg xmlns="http://www.w3.org/2000/svg" width="25.431" height="26.481" viewBox="0 0 25.431 26.481">
  <g id="Group_2782" data-name="Group 2782" transform="translate(-65.892 -417.858)">
    <g id="Group_1756" data-name="Group 1756" transform="translate(65.892 417.858)">
      <path id="Path_6156" data-name="Path 6156" d="M-350.636,392.606h-5.947V374.895h5.947Z" transform="translate(376.067 -366.125)" fill="gray"/>
      <path id="Path_6157" data-name="Path 6157" d="M-611.164,531.377v11.867h-5.959V531.377Z" transform="translate(626.882 -516.766)" fill="gray"/>
      <path id="Path_6158" data-name="Path 6158" d="M-841.411,142.166c-.24-.039-.442-.068-.641-.106a1.01,1.01,0,0,1-.834-.785,1.083,1.083,0,0,1,.351-1.132.9.9,0,0,1,.68-.2c.6.021,1.206.046,1.807.1.532.045,1.066.1,1.59.2a.992.992,0,0,1,.9,1.116,20.027,20.027,0,0,1-.325,3.338,1,1,0,0,1-1.173.9,1.156,1.156,0,0,1-.95-1.258c.011-.126.015-.253.022-.379l-.049-.02c-.178.141-.358.28-.532.425-3.153,2.63-11.68,9.816-14.834,12.444-.483.4-.986.779-1.464,1.187a1.055,1.055,0,0,1-1.706-.688.84.84,0,0,1,.292-.866c2.044-1.735,4.076-3.485,6.123-5.216,1.72-1.454,8.83-7.444,10.558-8.888C-841.541,142.284-841.489,142.236-841.411,142.166Z" transform="translate(859.336 -139.938)" fill="#f2f2f2"/>
      <path id="Path_6159" data-name="Path 6159" d="M-872.583,701.52h-5.93c-.007-.084-.016-.143-.017-.2q-.021-2.668-.042-5.336c0-.143.036-.193.187-.193q2.817.007,5.634,0c.116,0,.183.013.182.158q-.006,2.743,0,5.485A.68.68,0,0,1-872.583,701.52Z" transform="translate(878.572 -675.041)" fill="gray"/>
    </g>
  </g>
</svg>
