<svg xmlns="http://www.w3.org/2000/svg" xmlns:xlink="http://www.w3.org/1999/xlink" width="128.429" height="44.571" viewBox="0 0 128.429 44.571">
  <defs>
    <linearGradient id="linear-gradient" x1="0.5" y1="-0.274" x2="0.5" y2="0.859" gradientUnits="objectBoundingBox">
      <stop offset="0" stop-color="#0b003a"/>
      <stop offset="0.109" stop-color="#0e1142"/>
      <stop offset="0.325" stop-color="#163c55"/>
      <stop offset="0.627" stop-color="#238375"/>
      <stop offset="1" stop-color="#34e3a0"/>
    </linearGradient>
    <linearGradient id="linear-gradient-2" x1="0.5" y1="-0.276" x2="0.5" y2="0.857" xlink:href="#linear-gradient"/>
    <linearGradient id="linear-gradient-3" x1="0.501" y1="-0.562" x2="0.501" y2="0.919" xlink:href="#linear-gradient"/>
    <linearGradient id="linear-gradient-4" x1="0.499" y1="-0.565" x2="0.499" y2="0.926" xlink:href="#linear-gradient"/>
    <linearGradient id="linear-gradient-5" x1="0.5" y1="-0.682" x2="0.5" y2="1.115" xlink:href="#linear-gradient"/>
    <linearGradient id="linear-gradient-6" x1="0.06" y1="-0.111" x2="0.901" y2="0.817" gradientUnits="objectBoundingBox">
      <stop offset="0" stop-color="#fedd52"/>
      <stop offset="0.331" stop-color="#feb23a"/>
      <stop offset="1" stop-color="#af094b"/>
    </linearGradient>
    <linearGradient id="linear-gradient-7" x1="0.835" y1="0.5" x2="0.121" y2="0.5" xlink:href="#linear-gradient-6"/>
  </defs>
  <g id="Group_2041" data-name="Group 2041" transform="translate(-850.571 -95.456)">
    <path id="Path_6306" data-name="Path 6306" d="M173.754,188.9c-.341,2.04-.615,4.227-1.96,5.9-2.535,3.612-7.826,5.13-11.746,2.883-3.291-1.545-4.95-5.03-5.485-8.468L151.7,193.75l1.084,1.652a12.89,12.89,0,0,0,11.164,6.863c3.639.281,6.87-1.652,9.686-3.712.033,1.244.074,2.475.127,3.712,1.124-.013,2.247-.02,3.378-.027.033-1.9.114-3.8.02-5.7C177.165,193.616,174.978,191.4,173.754,188.9Z" transform="translate(709.011 -80.807)" fill="url(#linear-gradient)"/>
    <path id="Path_6307" data-name="Path 6307" d="M1412.154,189.3c-.341,2.04-.615,4.227-1.96,5.9-2.535,3.612-7.826,5.13-11.746,2.883-3.291-1.545-4.95-5.03-5.485-8.468l-2.863,4.535,1.083,1.652a12.891,12.891,0,0,0,11.164,6.863c3.639.281,6.87-1.652,9.686-3.712.033,1.244.074,2.475.127,3.712,1.124-.013,2.248-.02,3.378-.027.033-1.9.114-3.8.02-5.7C1415.572,194.016,1413.385,191.8,1412.154,189.3Z" transform="translate(-446.552 -81.18)" fill="url(#linear-gradient-2)"/>
    <path id="Path_6308" data-name="Path 6308" d="M983.365,22.526c.06-4.575-.04-9.144,0-13.726l-3.538.1c.02,2.689-.308,5.4.1,8.06A37.194,37.194,0,0,0,983.365,22.526Z" transform="translate(-63.624 87.246)" fill="url(#linear-gradient-3)"/>
    <path id="Path_6309" data-name="Path 6309" d="M1311.676,16.767c.508-2.642.167-5.351.14-8.02-1.09-.02-2.187-.033-3.284-.047-.167,4.542-.14,9.09-.033,13.639A29.814,29.814,0,0,0,1311.676,16.767Z" transform="translate(-370.328 87.34)" fill="url(#linear-gradient-4)"/>
    <path id="Path_6310" data-name="Path 6310" d="M575.155,20.1a30.361,30.361,0,0,1,3.518-4.575,9.35,9.35,0,0,1,9.846-2.5,9.465,9.465,0,0,1,2.656,1.458c-.013-.883.341-3.659.689-3.993a12.718,12.718,0,0,0-13.2.294,22.114,22.114,0,0,0-6.067,6.5c.147.234.294.468.435.7Z" transform="translate(316.266 87.262)" fill="url(#linear-gradient-5)"/>
    <path id="Path_6311" data-name="Path 6311" d="M126.683,20.092c-5.264-4.763-7.271-12.134-12.669-16.783a12.746,12.746,0,0,0-13.92-1.88C96.71,3.168,94.4,6.065,92.362,9.2c-.013.067-.02.134-.033.2-2.134,3.251-3.947,6.756-6.5,9.686a10.914,10.914,0,0,1-7.425,3.833C71.566,23.336,63.084,7.269,61.94,6.051c-.475-.5-2.094-2.314-2.85-2.314A40.051,40.051,0,0,0,59.1,8.305c.114,2.983.247,5.973-.863,8.749-2.254,5.438-10.141,6.937-14.381,3A38.721,38.721,0,0,1,36.274,9.476a18.773,18.773,0,0,0-7.753-8.241c-4.649-2.388-10.114-1.2-14.027,2.04C10.414,6.647,8.328,11.784,5.317,16a23.955,23.955,0,0,1-3.378,3.886A7.967,7.967,0,0,1,.1,21.155v4.114c3.291-1.177,5.96-3.94,7.987-6.749,2.528-3.505,4.141-7.625,7.057-10.856,3.177-3.512,8.549-5.2,12.709-2.2l.261.2c4.4,3.331,6.348,8.736,9.585,13.03,2.7,3.732,6.515,7.385,11.425,7.345a13.191,13.191,0,0,0,9.94-3.712q.05,10.916-.007,21.84c1.184.147,2.375.268,3.572.381.12-9.973.087-19.947.074-29.927,1.291,1.732,2.669,3.418,4.094,5.044,2.455,2.8,4.983,5.7,8.8,6.488a12.7,12.7,0,0,0,11.024-2.7c3.632-2.983,5.726-7.271,8.214-11.151S100.756,4,105.84,4.011c7.813.027,10.8,9.532,14.7,14.709,2.027,2.809,4.7,5.572,7.987,6.749V21.356A7.669,7.669,0,0,1,126.683,20.092Z" transform="translate(850.471 95.48)" fill="url(#linear-gradient-6)"/>
    <g id="Group_2792" data-name="Group 2792">
      <path id="Path_6312" data-name="Path 6312" d="M159.643,19.769a21.617,21.617,0,0,0,5.365,5.418V22.4a7.968,7.968,0,0,1-1.839-1.264C157.9,16.378,155.9,9.006,150.5,4.358a12.953,12.953,0,0,0-7.157-3.09A11.664,11.664,0,0,0,139.2,2.478c-3.385,1.739-5.7,4.635-7.733,7.766-.013.067-.02.134-.033.2-2.134,3.251-3.947,6.756-6.5,9.686a10.914,10.914,0,0,1-7.425,3.833,4.94,4.94,0,0,1-1.458-.147,9.54,9.54,0,0,1-1.164.147C108.05,24.384,99.568,8.317,98.425,7.1c-.074-.074-.174-.181-.288-.308.007.85.033,1.706.074,2.562.114,2.983.247,5.973-.863,8.749-1.565,3.779-5.853,5.652-9.746,5.13a8.9,8.9,0,0,1-7.258-2.127,38.721,38.721,0,0,1-7.579-10.582,18.825,18.825,0,0,0-7.759-8.241A11.372,11.372,0,0,0,61.06,1.1a14.208,14.208,0,0,0-7.465,3.224c-4.08,3.371-6.167,8.508-9.177,12.729a23.955,23.955,0,0,1-3.378,3.886A7.967,7.967,0,0,1,39.2,22.2v2.783a21.617,21.617,0,0,0,5.365-5.418c2.528-3.505,4.141-7.625,7.057-10.856A10.648,10.648,0,0,1,60.832,5.06a8.175,8.175,0,0,1,6.12,1.452l.261.2c4.4,3.331,6.348,8.736,9.585,13.03,2.6,3.6,6.248,7.124,10.916,7.331a13.856,13.856,0,0,0,7.826-3.706c0,.649.007,1.291.007,1.94a15.4,15.4,0,0,0,2.615-1.94q.05,10.916-.007,21.84c.314.04.635.074.95.114.114-9.88.08-19.766.067-29.652.843,1.13,1.726,2.241,2.629,3.324,0-1.11-.007-2.221-.007-3.324,1.291,1.732,2.669,3.418,4.094,5.044,2.455,2.8,4.983,5.7,8.8,6.488a14.074,14.074,0,0,0,1.505.227,11.936,11.936,0,0,0,6.9-2.923c3.632-2.983,5.726-7.271,8.214-11.151s5.926-8.308,11.01-8.294a8.333,8.333,0,0,1,1.311.1,8.482,8.482,0,0,1,1.318-.1C152.753,5.087,155.743,14.585,159.643,19.769Z" transform="translate(813.986 94.432)" fill="url(#linear-gradient-7)"/>
      <text id="Design" transform="translate(869.57 135.976)" fill="#a7a9ac" font-size="10" font-family="SegoeUI, Segoe UI"><tspan x="0" y="0">DESIGN</tspan></text>
      <text id="Works" transform="translate(916.951 135.976)" fill="#a7a9ac" font-size="10" font-family="SegoeUI, Segoe UI"><tspan x="0" y="0">WORKS</tspan></text>
    </g>
  </g>
</svg>
