<svg xmlns="http://www.w3.org/2000/svg" width="23.889" height="23.889" viewBox="0 0 23.889 23.889">
  <g id="Group_2005" data-name="Group 2005" transform="translate(-164.993 -4.867)">
    <g id="Group_1813" data-name="Group 1813" transform="translate(164.993 4.867)" opacity="0.4" style="mix-blend-mode: multiply;isolation: isolate">
      <circle id="Ellipse_543" data-name="Ellipse 543" cx="7.381" cy="7.381" r="7.381" transform="translate(1.623 7.505)" fill="#fff"/>
      <circle id="Ellipse_544" data-name="Ellipse 544" cx="7.381" cy="7.381" r="7.381" transform="translate(1.766 7.361)" fill="#fff8f7"/>
      <circle id="Ellipse_545" data-name="Ellipse 545" cx="7.381" cy="7.381" r="7.381" transform="translate(1.91 7.218)" fill="#fff1ef"/>
      <circle id="Ellipse_546" data-name="Ellipse 546" cx="7.381" cy="7.381" r="7.381" transform="translate(2.053 7.074)" fill="#ffeae8"/>
      <circle id="Ellipse_547" data-name="Ellipse 547" cx="7.381" cy="7.381" r="7.381" transform="translate(2.196 6.931)" fill="#ffe3e0"/>
      <circle id="Ellipse_548" data-name="Ellipse 548" cx="7.381" cy="7.381" r="7.381" transform="translate(2.34 6.787)" fill="#ffdcd8"/>
      <circle id="Ellipse_549" data-name="Ellipse 549" cx="7.381" cy="7.381" r="7.381" transform="translate(2.483 6.644)" fill="#ffd5d0"/>
      <circle id="Ellipse_550" data-name="Ellipse 550" cx="7.381" cy="7.381" r="7.381" transform="translate(2.627 6.5)" fill="#ffcec9"/>
      <circle id="Ellipse_551" data-name="Ellipse 551" cx="7.381" cy="7.381" r="7.381" transform="translate(2.77 6.357)" fill="#ffc7c1"/>
      <circle id="Ellipse_552" data-name="Ellipse 552" cx="7.381" cy="7.381" r="7.381" transform="translate(2.914 6.214)" fill="#ffc0b9"/>
      <circle id="Ellipse_553" data-name="Ellipse 553" cx="7.381" cy="7.381" r="7.381" transform="translate(0 13.451) rotate(-45)" fill="#ffb9b1"/>
      <circle id="Ellipse_554" data-name="Ellipse 554" cx="7.381" cy="7.381" r="7.381" transform="translate(0.143 13.308) rotate(-45)" fill="#ffb2a9"/>
      <circle id="Ellipse_555" data-name="Ellipse 555" cx="7.381" cy="7.381" r="7.381" transform="translate(0.287 13.164) rotate(-45)" fill="#ffaba2"/>
      <circle id="Ellipse_556" data-name="Ellipse 556" cx="7.381" cy="7.381" r="7.381" transform="translate(0.43 13.021) rotate(-45)" fill="#ffa49a"/>
      <circle id="Ellipse_557" data-name="Ellipse 557" cx="7.381" cy="7.381" r="7.381" transform="translate(0.574 12.877) rotate(-45)" fill="#ff9d92"/>
      <circle id="Ellipse_558" data-name="Ellipse 558" cx="7.381" cy="7.381" r="7.381" transform="translate(0.717 12.734) rotate(-45)" fill="#ff968a"/>
      <circle id="Ellipse_559" data-name="Ellipse 559" cx="7.381" cy="7.381" r="7.381" transform="translate(0.861 12.59) rotate(-45)" fill="#ff9083"/>
      <circle id="Ellipse_560" data-name="Ellipse 560" cx="7.381" cy="7.381" r="7.381" transform="translate(1.004 12.447) rotate(-45)" fill="#ff897b"/>
      <circle id="Ellipse_561" data-name="Ellipse 561" cx="7.381" cy="7.381" r="7.381" transform="translate(1.148 12.303) rotate(-45)" fill="#ff8273"/>
      <circle id="Ellipse_562" data-name="Ellipse 562" cx="7.381" cy="7.381" r="7.381" transform="translate(1.291 12.16) rotate(-45)" fill="#ff7b6b"/>
      <circle id="Ellipse_563" data-name="Ellipse 563" cx="7.381" cy="7.381" r="7.381" transform="translate(1.435 12.016) rotate(-45)" fill="#ff7464"/>
      <circle id="Ellipse_564" data-name="Ellipse 564" cx="7.381" cy="7.381" r="7.381" transform="translate(1.578 11.873) rotate(-45)" fill="#ff6d5c"/>
      <circle id="Ellipse_565" data-name="Ellipse 565" cx="7.381" cy="7.381" r="7.381" transform="translate(1.722 11.729) rotate(-45)" fill="#ff6654"/>
      <circle id="Ellipse_566" data-name="Ellipse 566" cx="7.381" cy="7.381" r="7.381" transform="translate(1.865 11.586) rotate(-45)" fill="#ff5f4c"/>
      <circle id="Ellipse_567" data-name="Ellipse 567" cx="7.381" cy="7.381" r="7.381" transform="translate(2.009 11.442) rotate(-45)" fill="#ff5844"/>
      <circle id="Ellipse_568" data-name="Ellipse 568" cx="7.381" cy="7.381" r="7.381" transform="translate(2.152 11.299) rotate(-45)" fill="#ff513d"/>
      <circle id="Ellipse_569" data-name="Ellipse 569" cx="7.381" cy="7.381" r="7.381" transform="translate(2.295 11.156) rotate(-45)" fill="#ff4a35"/>
      <circle id="Ellipse_570" data-name="Ellipse 570" cx="7.381" cy="7.381" r="7.381" transform="translate(2.439 11.012) rotate(-45)" fill="#ff432d"/>
      <circle id="Ellipse_571" data-name="Ellipse 571" cx="7.381" cy="7.381" r="7.381" transform="translate(2.582 10.869) rotate(-45)" fill="#ff3c25"/>
      <circle id="Ellipse_572" data-name="Ellipse 572" cx="7.381" cy="7.381" r="7.381" transform="translate(2.726 10.725) rotate(-45)" fill="#ff351e"/>
      <circle id="Ellipse_573" data-name="Ellipse 573" cx="7.381" cy="7.381" r="7.381" transform="translate(2.869 10.582) rotate(-45)" fill="#ff2e16"/>
      <circle id="Ellipse_574" data-name="Ellipse 574" cx="7.381" cy="7.381" r="7.381" transform="translate(3.013 10.438) rotate(-45)" fill="#ff270e"/>
    </g>
    <g id="Group_1814" data-name="Group 1814" transform="translate(168.005 4.867)">
      <circle id="Ellipse_575" data-name="Ellipse 575" cx="7.381" cy="7.381" r="7.381" transform="translate(0 10.438) rotate(-45)" fill="#ff270e"/>
      <path id="Path_6200" data-name="Path 6200" d="M210.606,38.621a7.536,7.536,0,1,1,7.536-7.536A7.545,7.545,0,0,1,210.606,38.621Zm0-14.762a7.226,7.226,0,1,0,7.226,7.226A7.234,7.234,0,0,0,210.606,23.86Z" transform="translate(-200.168 -20.647)" fill="#fff"/>
    </g>
    <g id="Group_1815" data-name="Group 1815" transform="translate(174.533 11.788)">
      <path id="Path_6201" data-name="Path 6201" d="M235.317,52.28l-1.131-1.131-2.459,2.459-2.459-2.459-1.131,1.131,2.459,2.459L228.136,57.2l1.131,1.131,2.459-2.459,2.459,2.459,1.131-1.131-2.459-2.459Z" transform="translate(-227.868 -50.88)" fill="#fff"/>
      <path id="Path_6202" data-name="Path 6202" d="M232.727,57.139l-2.459-2.459-2.459,2.459-1.4-1.4,2.459-2.459-2.459-2.459,1.4-1.4,2.459,2.459,2.459-2.459,1.4,1.4-2.459,2.459,2.459,2.459Zm-2.459-3,2.459,2.459.863-.863-2.459-2.459,2.459-2.459-.863-.863-2.459,2.459-2.459-2.459-.863.863,2.459,2.459-2.459,2.459.863.863Z" transform="translate(-226.41 -49.422)" fill="#fff"/>
    </g>
  </g>
</svg>
