<svg xmlns="http://www.w3.org/2000/svg" width="27.423" height="22.407" viewBox="0 0 27.423 22.407">
  <path id="Path_6286" data-name="Path 6286" d="M4112.874,2737.034h12.009a1.667,1.667,0,0,1,1.7,1.686q0,6.622,0,13.245a1.679,1.679,0,0,1-1.723,1.682q-3.49,0-6.979,0a.249.249,0,0,0-.236.124q-1.724,2.5-3.453,5a1.64,1.64,0,0,1-2.647,0q-1.728-2.5-3.45-5a.241.241,0,0,0-.227-.12q-3.5,0-6.99,0a1.683,1.683,0,0,1-1.7-1.431,1.874,1.874,0,0,1-.019-.267q0-6.61,0-13.221a1.67,1.67,0,0,1,1.313-1.656,1.624,1.624,0,0,1,.358-.037Q4106.854,2737.033,4112.874,2737.034Zm7.984,8.552a1.573,1.573,0,1,0-1.561,1.572A1.58,1.58,0,0,0,4120.858,2745.586Zm-12.823,0a1.574,1.574,0,1,0-1.562,1.573A1.585,1.585,0,0,0,4108.035,2745.585Zm3.263.006a1.575,1.575,0,1,0,1.57-1.579A1.576,1.576,0,0,0,4111.3,2745.591Z" transform="translate(-4099.162 -2737.034)" fill="#fff"/>
</svg>
