<svg xmlns="http://www.w3.org/2000/svg" width="14.501" height="16.563" viewBox="0 0 14.501 16.563">
  <g id="Group_2010" data-name="Group 2010" transform="translate(935.118 -9.765)">
    <path id="Path_6225" data-name="Path 6225" d="M-925.113,26.328h-8.1a.194.194,0,0,0-.039-.013,2.191,2.191,0,0,1-1.812-1.625c-.026-.106-.04-.215-.059-.322V13.787a.431.431,0,0,0,.014-.056A2.092,2.092,0,0,1-933.854,12a1.766,1.766,0,0,1,.755-.156c.188,0,.376,0,.569,0l.01-.127c0-.039,0-.079.01-.118a2.16,2.16,0,0,1,1.416-1.718,3.568,3.568,0,0,1,.472-.119h6.388a.718.718,0,0,0,.043.061l3.519,4.032a.52.52,0,0,0,.055.048v8.4c0,.021-.011.042-.014.064a2.16,2.16,0,0,1-1.434,1.777,1.841,1.841,0,0,1-.7.112h-.432c0,.048-.009.087-.013.125s0,.079-.011.118a2.16,2.16,0,0,1-1.361,1.688A3.647,3.647,0,0,1-925.113,26.328Zm-.167-15.53h-5.132a1.077,1.077,0,0,0-1.078,1.071q0,5.142,0,10.284a1.072,1.072,0,0,0,1.07,1.067h7.69a1.017,1.017,0,0,0,.177-.011,1.093,1.093,0,0,0,.9-1.089q0-3.545,0-7.09c0-.029,0-.059-.005-.092h-1.48c-.082,0-.164,0-.245-.007a2.147,2.147,0,0,1-1.9-2.1c.008-.639,0-1.279,0-1.918Zm-7.249,2.071c-.238.009-.463.017-.687.027a.546.546,0,0,0-.107.022,1.066,1.066,0,0,0-.758,1.056q.008,5.112,0,10.223a1.128,1.128,0,0,0,1.1,1.1c2.549-.009,5.1,0,7.646,0a1.062,1.062,0,0,0,1.006-.657.712.712,0,0,0,.079-.379h-.125q-2.991,0-5.982,0a2.546,2.546,0,0,1-.445-.036,2.194,2.194,0,0,1-1.729-2.12c.012-3.033,0-6.066,0-9.1Zm8.3-2.034-.019.008v.081c0,.467-.01.935,0,1.4a2.013,2.013,0,0,0,.585,1.363.688.688,0,0,0,.537.219c.453-.008.906,0,1.36,0h.106Z" fill="#8f9198"/>
    <path id="Path_6226" data-name="Path 6226" d="M-595.062,439q1.153,0,2.307,0a.518.518,0,0,1,.538.537.514.514,0,0,1-.459.492c-.045,0-.09.006-.135.006h-4.5a.622.622,0,0,1-.363-.088.518.518,0,0,1-.209-.578.517.517,0,0,1,.509-.369c.668,0,1.335,0,2,0Z" transform="translate(-331.511 -421.984)" fill="#8f9198"/>
    <path id="Path_6227" data-name="Path 6227" d="M-595.106,593.054c-.752,0-1.5,0-2.256,0a.78.78,0,0,1-.256-.038.5.5,0,0,1-.326-.55.517.517,0,0,1,.5-.446h4.639a.517.517,0,0,1,.541.425.513.513,0,0,1-.439.6,1.459,1.459,0,0,1-.16.008Z" transform="translate(-331.469 -572.413)" fill="#8f9198"/>
  </g>
</svg>
