<svg xmlns="http://www.w3.org/2000/svg" width="25.432" height="26.729" viewBox="0 0 25.432 26.729">
  <g id="Group_2780" data-name="Group 2780" transform="translate(-65.892 -308.978)">
    <g id="Group_1754" data-name="Group 1754" transform="translate(65.892 308.978)">
      <path id="Path_6150" data-name="Path 6150" d="M527.691,480.552a9.933,9.933,0,0,0,2.184,2,4.925,4.925,0,0,0,6.326-.162c.719-.533,1.354-1.179,2.05-1.793a12.583,12.583,0,0,1,7.391,11.549H520.224A12.6,12.6,0,0,1,527.691,480.552Z" transform="translate(-520.215 -465.415)" fill="#f2f2f2"/>
      <path id="Path_6151" data-name="Path 6151" d="M543.175,465.31a7.2,7.2,0,0,1-1.082,3.417,9.366,9.366,0,0,1-4.068,3.808,4.27,4.27,0,0,1-3.871.049,8.8,8.8,0,0,1-5.167-6.545c-.619-3.474,1.417-7.745,5.334-8.786a6.432,6.432,0,0,1,6.906,2.282A8.536,8.536,0,0,1,543.175,465.31Z" transform="translate(-523.31 -457)" fill="gray"/>
    </g>
  </g>
</svg>
