<svg id="Group_2043" data-name="Group 2043" xmlns="http://www.w3.org/2000/svg" width="17.418" height="20.031" viewBox="0 0 17.418 20.031">
  <path id="Path_6317" data-name="Path 6317" d="M37.41,59.324a.52.52,0,0,1,0-1.024H43.1a.52.52,0,0,1,0,1.024Z" transform="translate(-30.952 -48.797)" fill="#62b6ff" fill-rule="evenodd"/>
  <path id="Path_6318" data-name="Path 6318" d="M7.624,19a.513.513,0,0,1,0,1.027H1.195A1.2,1.2,0,0,1,0,18.836V1.195A1.2,1.2,0,0,1,1.195,0H15.869a1.2,1.2,0,0,1,1.195,1.195V9.368a.513.513,0,1,1-1.027,0V1.195a.162.162,0,0,0-.051-.117.165.165,0,0,0-.117-.051H1.195a.175.175,0,0,0-.119.049.178.178,0,0,0-.049.119V18.834A.17.17,0,0,0,1.195,19H7.624Z" transform="translate(0 0)" fill="#262626" fill-rule="evenodd"/>
  <path id="Path_6319" data-name="Path 6319" d="M92.481,73.745a.394.394,0,0,0-.29-.116.384.384,0,0,0-.284.127l-.637.663,1.788,1.726.644-.67a.42.42,0,0,0-.011-.574l-1.21-1.157Z" transform="translate(-76.392 -61.628)" fill-rule="evenodd"/>
  <path id="Path_6320" data-name="Path 6320" d="M66.02,87.285c-.236.075-.471.153-.706.23l-.706.236q-.834.274-.932.3t.114-.784l.442-1.7h0l3.35-3.485,1.787,1.72L66.02,87.285Z" transform="translate(-53.271 -68.7)" fill="#262626" fill-rule="evenodd"/>
  <path id="Path_6321" data-name="Path 6321" d="M37.4,81.61a.529.529,0,0,1,0-1.04h2.8a.529.529,0,0,1,0,1.04Z" transform="translate(-30.944 -67.437)" fill="#62b6ff" fill-rule="evenodd"/>
  <path id="Path_6322" data-name="Path 6322" d="M37.41,37a.52.52,0,0,1,0-1.024H43.1A.52.52,0,0,1,43.1,37Z" transform="translate(-30.952 -30.115)" fill="#62b6ff" fill-rule="evenodd"/>
  <path id="Path_6323" data-name="Path 6323" d="M22.072,79.46a1.083,1.083,0,1,1,0,2.116,1.083,1.083,0,1,1,0-2.116Z" transform="translate(-17.376 -66.508)" fill="#62b6ff" fill-rule="evenodd"/>
  <path id="Path_6324" data-name="Path 6324" d="M21.366,57.44a.606.606,0,1,1-.606.606.606.606,0,0,1,.606-.606Z" transform="translate(-17.376 -48.077)" fill="#62b6ff" fill-rule="evenodd"/>
  <path id="Path_6325" data-name="Path 6325" d="M21.366,35.42a.606.606,0,1,1-.606.606.606.606,0,0,1,.606-.606Z" transform="translate(-17.376 -29.647)" fill="#62b6ff" fill-rule="evenodd"/>
</svg>
