<svg id="home_1_" data-name="home (1)" xmlns="http://www.w3.org/2000/svg" width="28.421" height="22.618" viewBox="0 0 28.421 22.618">
  <g id="Group_1652" data-name="Group 1652" transform="translate(0)">
    <path id="Path_6078" data-name="Path 6078" d="M75.852,120.939,65.716,129.3a.24.24,0,0,1-.009.053.241.241,0,0,0-.009.053v8.462a1.145,1.145,0,0,0,1.128,1.129H73.6v-6.769h4.513v6.77h6.769a1.146,1.146,0,0,0,1.129-1.129V129.4a.248.248,0,0,0-.018-.105Z" transform="translate(-61.641 -116.373)" fill="#fff"/>
    <path id="Path_6079" data-name="Path 6079" d="M28.224,58.012,24.364,54.8V47.611a.543.543,0,0,0-.564-.564H20.415a.543.543,0,0,0-.564.564v3.438l-4.3-3.6a2.187,2.187,0,0,0-2.679,0L.2,58.012A.512.512,0,0,0,0,58.391a.571.571,0,0,0,.123.414l1.093,1.3a.6.6,0,0,0,.37.194.655.655,0,0,0,.423-.123l12.2-10.172,12.2,10.172a.543.543,0,0,0,.37.123h.053a.6.6,0,0,0,.37-.194l1.093-1.3a.571.571,0,0,0,.123-.415A.514.514,0,0,0,28.224,58.012Z" transform="translate(0.001 -46.994)" fill="#fff"/>
  </g>
</svg>
