<svg xmlns="http://www.w3.org/2000/svg" width="25.432" height="33.785" viewBox="0 0 25.432 33.785">
  <g id="Group_2784" data-name="Group 2784" transform="translate(-65.892 -532.302)">
    <g id="Group_1758" data-name="Group 1758" transform="translate(65.892 532.302)">
      <path id="Path_6162" data-name="Path 6162" d="M525.657,546.65a1.148,1.148,0,0,0,.632.784,5.024,5.024,0,0,0,1.8.591,9.49,9.49,0,0,0,4.309-.227,5.013,5.013,0,0,0,.954-.432.966.966,0,0,0,.531-.716,1.043,1.043,0,0,1,.1.058,10.023,10.023,0,0,0,4.389,1.868c.5.092.991.2,1.482.32a2.842,2.842,0,0,1,2.121,2,9.772,9.772,0,0,1,.439,2.464c.041.613.043,1.228.075,1.842a1.773,1.773,0,0,1-.59,1.429,5.527,5.527,0,0,1-1.852,1.1,18.614,18.614,0,0,1-3.771.983c-.033.005-.066.007-.122.013a1.775,1.775,0,0,0-.988-1.693,7.45,7.45,0,0,0,.046-.816,1.581,1.581,0,0,0-.484-1.042c-.3-.3-.595-.609-.9-.9a1.744,1.744,0,0,0-1.829-.394c-.031-.052-.061-.1-.092-.153a1.686,1.686,0,0,0-1.429-.859c-.445-.017-.892-.013-1.337,0a1.7,1.7,0,0,0-1.521.911c-.019.034-.041.068-.065.106a1.837,1.837,0,0,0-2.045.6c-.194.216-.408.413-.615.617a1.731,1.731,0,0,0-.492,1.832c.007.024.01.05.017.081a1.791,1.791,0,0,0-1.015,1.724c-.353-.066-.689-.124-1.022-.192a15.558,15.558,0,0,1-3.249-.974,5.113,5.113,0,0,1-1.45-.911,1.847,1.847,0,0,1-.621-1.477,17.359,17.359,0,0,1,.32-3.542,6.92,6.92,0,0,1,.483-1.367,2.479,2.479,0,0,1,1.7-1.331c.7-.182,1.406-.32,2.112-.47a9.6,9.6,0,0,0,3.878-1.751C525.578,546.7,525.613,546.678,525.657,546.65Z" transform="translate(-517.054 -530.547)" fill="gray"/>
      <path id="Path_6163" data-name="Path 6163" d="M534.591,517.592a5.986,5.986,0,0,1,3.817,1.162.248.248,0,0,0,.05.034,3.6,3.6,0,0,1,2.012,2.7c.137.6.2,1.223.278,1.838.045.341.063.685.1,1.027a.184.184,0,0,0,.051.122,1.049,1.049,0,0,1,.373.8,4.22,4.22,0,0,1-.411,2.361,1.332,1.332,0,0,1-.519.606.393.393,0,0,0-.123.2,10.1,10.1,0,0,1-2.313,3.6,5.075,5.075,0,0,1-2.343,1.381,3.828,3.828,0,0,1-3.07-.591,7.652,7.652,0,0,1-2.479-2.707c-.308-.536-.544-1.113-.821-1.668a1.09,1.09,0,0,0-.2-.227,2.642,2.642,0,0,1-.408-.439,4,4,0,0,1-.467-2.715.8.8,0,0,1,.375-.62c.044-.024.056-.126.064-.194.083-.825.135-1.654.252-2.474A4.5,4.5,0,0,1,529.48,520a3.208,3.208,0,0,1,1.2-1.117,6.1,6.1,0,0,0,.535-.321,5.713,5.713,0,0,1,2.767-.938C534.221,517.607,534.458,517.6,534.591,517.592Z" transform="translate(-521.957 -517.592)" fill="gray"/>
      <path id="Path_6164" data-name="Path 6164" d="M535.893,570.344c-.189,0-.378,0-.567,0a.593.593,0,0,1-.54-.554.76.76,0,0,0-.687-.861.328.328,0,0,0-.215.023c-.177.11-.342.24-.514.36a.468.468,0,0,1-.658-.044q-.428-.417-.845-.846a.464.464,0,0,1-.047-.643c.11-.162.226-.319.34-.479a.742.742,0,0,0,.069-.1,1.14,1.14,0,0,0-.387-.765c-.2-.035-.4-.064-.6-.1a.478.478,0,0,1-.445-.51c0-.392,0-.784,0-1.175a.475.475,0,0,1,.431-.5.57.57,0,0,1,.139-.024c.512.044.742-.258.852-.7a.278.278,0,0,0-.032-.2c-.112-.176-.242-.341-.361-.513a.474.474,0,0,1,.057-.674q.4-.4.8-.8a.492.492,0,0,1,.709-.054c.155.109.308.22.461.33a.632.632,0,0,0,.083.057,1.237,1.237,0,0,0,.758-.367c.04-.212.071-.426.108-.638a.469.469,0,0,1,.485-.424q.608-.008,1.216,0a.472.472,0,0,1,.484.427.559.559,0,0,1,.013.1.778.778,0,0,0,.69.883.326.326,0,0,0,.212-.022c.183-.114.353-.249.531-.371a.471.471,0,0,1,.644.053q.429.416.846.845a.469.469,0,0,1,.052.643c-.11.162-.227.319-.341.478a.741.741,0,0,0-.069.1,1.13,1.13,0,0,0,.383.763c.206.038.413.07.618.106a.47.47,0,0,1,.428.483q.011.608,0,1.215a.472.472,0,0,1-.407.482.564.564,0,0,1-.1.013.791.791,0,0,0-.9.692.339.339,0,0,0,.021.214c.114.183.25.352.372.53a.465.465,0,0,1-.052.643q-.416.429-.846.845a.472.472,0,0,1-.645.051c-.173-.117-.335-.252-.515-.358a.417.417,0,0,0-.249-.021c-.071.01-.133.071-.2.083a.477.477,0,0,0-.423.533,2.316,2.316,0,0,1-.053.34.481.481,0,0,1-.509.448C536.284,570.348,536.088,570.344,535.893,570.344Zm.009-7.14a2.036,2.036,0,1,0,2.028,2.038A2.033,2.033,0,0,0,535.9,563.2Z" transform="translate(-523.179 -536.56)" fill="#f2f2f2"/>
    </g>
  </g>
</svg>
