<svg xmlns="http://www.w3.org/2000/svg" width="31.429" height="42.823" viewBox="0 0 31.429 42.823">
  <g id="Group_2794" data-name="Group 2794" transform="translate(-1113 -289.677)">
    <path id="Path_6224" data-name="Path 6224" d="M733.873,125.55c-1.949-2.777-5.612-3.569-8.572-4.782a.872.872,0,0,1-.5-.521c-.05-.375-.159-.8.318-1.095a6.828,6.828,0,0,0,2.789-3.405.972.972,0,0,1,.616-.507,3.687,3.687,0,0,0,1.94-6.312,1.247,1.247,0,0,1-.266-.792,15.973,15.973,0,0,0-.443-4.842c-2.4-7.135-12.446-8.5-16.835-2.488-.04.055-.08.111-.118.166-1.446,2.075-1.5,4.69-1.565,7.125a1.611,1.611,0,0,1-.389.944,3.615,3.615,0,0,0-.872,3.637,3.378,3.378,0,0,0,2.762,2.494,1.1,1.1,0,0,1,.955.8,6.067,6.067,0,0,0,2.485,3.044.975.975,0,0,1,.514,1.2,1.25,1.25,0,0,1-.693.6c-1.721.7-3.59,1.235-5.271,2.1a9.133,9.133,0,0,0-4.271,4.424c-.761,2.134-.543,4.614-.543,6.843v2.25h18.035l2.2-2.222H708.207c0-1.536-.08-3.006.019-4.465a5.225,5.225,0,0,1,3.326-4.763c1.65-.7,3.341-1.3,5-1.978a.661.661,0,0,1,.842.182c.742.756,1.506,1.489,2.269,2.224.8.778,1.344.775,2.115-.014.69-.709,1.4-1.4,2.048-2.15a.82.82,0,0,1,1.121-.225c1.435.616,2.885,1.207,4.348,1.757a5.509,5.509,0,0,1,3.3,2.91l1.6-1.629A5.826,5.826,0,0,0,733.873,125.55ZM728.408,110.3a1.243,1.243,0,0,1,.967,1.193,1.38,1.38,0,0,1-.967,1.466Zm-15.339,2.632a1.251,1.251,0,0,1-1.017-1.252,1.328,1.328,0,0,1,1.017-1.409Zm.438-5.612c-.228-2.891.6-5.375,3.1-6.973a7.233,7.233,0,0,1,8.2-.014c2.5,1.588,3.351,4.066,3.121,6.98a4.081,4.081,0,0,1-3.137-3.073c-.183-.512-.346-1.006-.972-1.128-.65-.125-1.012.273-1.375.716a9.383,9.383,0,0,1-5.587,3.014C715.771,107.081,714.645,107.167,713.507,107.325Zm7.222,16.039c-.778-.994-2.233-1.466-1.683-3.1h3.422C722.9,121.88,721.33,122.281,720.729,123.364Zm1.332-5.389c-1.807.23-3.6.216-5.081-1.115a4.366,4.366,0,0,1-1.581-3.178c-.043-1.42-.009-2.843-.009-4.32a14.039,14.039,0,0,0,7.823-3.09A6.669,6.669,0,0,0,725.906,109a.579.579,0,0,1,.227.443c-.009,1.472.035,2.948-.086,4.411A4.518,4.518,0,0,1,722.06,117.975Z" transform="translate(407.117 192.659)" fill="#7a7a7a"/>
    <path id="Path_6226" data-name="Path 6226" d="M823.72,278.636l-2.662-2.7,4.593-4.594-1.922-1.943-4.557,4.623-4.557-4.623-1.922,1.943,4.593,4.594-2.662,2.7-.013-.013-1.918,1.94,1.892,1.848,4.588-4.589,4.588,4.589,1.892-1.848-1.918-1.94Z" transform="translate(318.779 50.088)" fill="red"/>
  </g>
</svg>
