<svg xmlns="http://www.w3.org/2000/svg" width="20.515" height="19.16" viewBox="0 0 20.515 19.16">
  <path id="Path_6332" data-name="Path 6332" d="M20.131,4.989a1.3,1.3,0,0,0-.92-.382H17.156a1.361,1.361,0,0,0,.023-.247V1.354A1.358,1.358,0,0,0,15.825,0H4.692a1.335,1.335,0,0,0-.518.107,1.376,1.376,0,0,0-.436.3,1.342,1.342,0,0,0-.4.955V4.365a1.36,1.36,0,0,0,.022.247H1.306a1.3,1.3,0,0,0-.88.344l-.042.038A1.3,1.3,0,0,0,0,5.917v7.774a1.3,1.3,0,0,0,.344.887l.04.043A1.3,1.3,0,0,0,1.306,15h1.78v3.381a.767.767,0,0,0,.167.483.529.529,0,0,0,.057.065.775.775,0,0,0,.548.227h12.8a.767.767,0,0,0,.483-.167.721.721,0,0,0,.065-.057.775.775,0,0,0,.227-.548V15H19.21a1.31,1.31,0,0,0,1.306-1.306V5.911A1.3,1.3,0,0,0,20.131,4.989ZM4.381,1.359a.311.311,0,0,1,.311-.312H15.825a.315.315,0,0,1,.312.312V4.365a.31.31,0,0,1-.092.219l-.032.028H4.5l-.032-.028a.31.31,0,0,1-.092-.219ZM3.309,11.416a.775.775,0,0,0-.227.548v1.853H1.306a.125.125,0,0,1-.088-.037l-.012-.012a.125.125,0,0,1-.025-.077V11.3H3.454A.69.69,0,0,0,3.309,11.416Zm12.947,6.574H4.261V12.007H16.256ZM19.336,13.7a.125.125,0,0,1-.125.125H17.435v-1.86a.775.775,0,0,0-.227-.548.69.69,0,0,0-.145-.115h2.274Zm0-3.578H1.18v-4.2a.125.125,0,0,1,.037-.088l.012-.012a.126.126,0,0,1,.077-.027H19.211a.125.125,0,0,1,.088.037.129.129,0,0,1,.037.09ZM6.061,14.154h8.4a.4.4,0,1,0,0-.8h-8.4a.4.4,0,1,0,0,.8Zm0,2.431h4.565a.4.4,0,0,0,0-.8H6.061a.4.4,0,0,0,0,.8Z" transform="translate(0)"/>
</svg>
