<svg xmlns="http://www.w3.org/2000/svg" width="17.154" height="17.881" viewBox="0 0 17.154 17.881">
  <path id="Path_6337" data-name="Path 6337" d="M14.9,4.491,11.36.835V.8H1.819v5.9h0L6.8,11.148l.022.02L8.5,12.67l6.788-5.923V5.291l-.384-.8ZM16.081,6.05a.522.522,0,0,1,.354-.135.582.582,0,0,1,.3.087.741.741,0,0,1,.183.156,1.027,1.027,0,0,1,.246.62v10.28a.831.831,0,0,1-.242.582h0a.825.825,0,0,1-.582.242H.834a.831.831,0,0,1-.582-.242h0a.818.818,0,0,1-.242-.582V6.777a1.033,1.033,0,0,1,.252-.629A.8.8,0,0,1,.445,6a.582.582,0,0,1,.291-.084A.522.522,0,0,1,1.027,6V.4A.4.4,0,0,1,1.42,0H11.491A.394.394,0,0,1,11.8.146l4.169,4.306a.394.394,0,0,1,.114.277h0V6.051ZM8.234,13.5,6.543,11.986.807,17.013v.045a.025.025,0,0,0,0,.019h0a.032.032,0,0,0,.019,0H16.339a.032.032,0,0,0,.019,0h0a.025.025,0,0,0,0-.019v-.031l-5.805-5.094L8.762,13.5h0a.4.4,0,0,1-.527,0ZM5.945,11.459.807,6.862v9.093l5.137-4.5Zm10.42,4.52V6.857l-5.209,4.551,5.209,4.564Z" transform="translate(-0.01 0)" fill="#313131"/>
</svg>
