<svg id="Group_2044" data-name="Group 2044" xmlns="http://www.w3.org/2000/svg" width="20.357" height="16.468" viewBox="0 0 20.357 16.468">
  <path id="Path_6326" data-name="Path 6326" d="M93,73.17a.712.712,0,1,1,1.425,0h0v3.038a.714.714,0,0,1-.712.714H89.453a.711.711,0,0,1,0-1.42H93V73.17Z" transform="translate(-74.07 -60.454)" fill-rule="evenodd"/>
  <path id="Path_6327" data-name="Path 6327" d="M94.427,3.787a.712.712,0,1,1-1.425,0h0V1.44H89.453a.711.711,0,0,1,0-1.42h4.261a.714.714,0,0,1,.712.712V3.787Z" transform="translate(-74.07 -0.017)" fill-rule="evenodd"/>
  <path id="Path_6328" data-name="Path 6328" d="M1.425,3.759A.712.712,0,0,1,0,3.759V.712A.714.714,0,0,1,.712,0H4.97a.711.711,0,0,1,0,1.42H1.425V3.759Z" transform="translate(0)" fill-rule="evenodd"/>
  <path id="Path_6329" data-name="Path 6329" d="M0,73.132a.712.712,0,1,1,1.425,0h0v2.336H4.97a.711.711,0,0,1,0,1.42H.712A.714.714,0,0,1,0,76.177Z" transform="translate(0 -60.423)" fill-rule="evenodd"/>
  <path id="Path_6330" data-name="Path 6330" d="M24.161,23.863a18.1,18.1,0,0,0-1.877-1.792,11.412,11.412,0,0,0-7.529-2.891,10.894,10.894,0,0,0-7.124,3.055,16.214,16.214,0,0,0-1.541,1.623.607.607,0,0,0-.031.8,13.484,13.484,0,0,0,2.735,2.6,11.377,11.377,0,0,0,6.627,2.154A10.406,10.406,0,0,0,21.9,27.1a12.009,12.009,0,0,0,2.3-2.465A.612.612,0,0,0,24.161,23.863Zm-3.022,2.276a9.188,9.188,0,0,1-5.724,2.046A10.173,10.173,0,0,1,9.5,26.256a12.082,12.082,0,0,1-2.169-1.973,14.671,14.671,0,0,1,1.122-1.148A9.628,9.628,0,0,1,14.775,20.4a10.3,10.3,0,0,1,6.736,2.613,16.4,16.4,0,0,1,1.406,1.307A10.575,10.575,0,0,1,21.139,26.139Z" transform="translate(-4.944 -16)" fill-rule="evenodd"/>
  <path id="Path_6331" data-name="Path 6331" d="M46.13,31.76a3.028,3.028,0,1,0,3.029,3.028A3.022,3.022,0,0,0,46.13,31.76Zm-.853,2.934a1.175,1.175,0,0,1,0-2.349c.649,0,1.175,1.175,1.175,1.175S45.926,34.694,45.277,34.694Z" transform="translate(-35.961 -26.499)" fill="#3adb4a" fill-rule="evenodd"/>
</svg>
