<svg id="download-pdf-icon" xmlns="http://www.w3.org/2000/svg" width="16.929" height="19.026" viewBox="0 0 16.929 19.026">
  <path id="Path_6314" data-name="Path 6314" d="M28.317,16.31H26.645v-2.3H24.269v2.3H22.543l2.886,2.716,2.888-2.716ZM31.432,5.257h-2.91a1.526,1.526,0,0,1-.934-.365,1.319,1.319,0,0,1-.324-.869V1.076h-7.69a.082.082,0,0,0-.057.025.061.061,0,0,0-.028.059V14.744a.107.107,0,0,0,.025.057.07.07,0,0,0,.059.025h2.007a4.262,4.262,0,0,0-.345,1.07h-1.99a.817.817,0,0,1-.816-.818V.824a.817.817,0,0,1,.816-.818h8.565A.176.176,0,0,1,27.868,0a.382.382,0,0,1,.246.1h.012a.164.164,0,0,1,.033.025l4.223,4.274a.4.4,0,0,1,.124.279.512.512,0,0,1-.012.093V15.081a.819.819,0,0,1-.818.818H29.512a4.18,4.18,0,0,0-.345-1.07h2.179c.025,0,.025-.014.039-.025s.046-.04.046-.057c0-3.631,0-5.859,0-9.489Zm-3.2-1.319V1.257l3.018,3.057H28.607a.4.4,0,0,1-.266-.11.383.383,0,0,1-.11-.266Z" transform="translate(-15.576)" fill="#262626" fill-rule="evenodd"/>
  <path id="Path_6315" data-name="Path 6315" d="M0,38.51H13.766v6.613H0Z" transform="translate(0 -32.547)" fill="red" fill-rule="evenodd"/>
  <path id="Path_6316" data-name="Path 6316" d="M12.062,48.62h1.823a1.249,1.249,0,0,1,.89.282,1.059,1.059,0,0,1,.3.8,1.084,1.084,0,0,1-.324.836,1.4,1.4,0,0,1-.986.3h-.6v1.31h-1.1V48.62Zm1.1,1.505h.268a.678.678,0,0,0,.444-.11.352.352,0,0,0,.129-.28.388.388,0,0,0-.111-.282.574.574,0,0,0-.418-.116h-.313v.788Zm2.448-1.505h1.627a1.954,1.954,0,0,1,.777.13,1.272,1.272,0,0,1,.489.373,1.569,1.569,0,0,1,.28.567,2.648,2.648,0,0,1,.087.684,2.352,2.352,0,0,1-.13.878,1.448,1.448,0,0,1-.359.523,1.169,1.169,0,0,1-.492.28,2.584,2.584,0,0,1-.653.1H15.611V48.62Zm1.095.8v1.928h.268a1.131,1.131,0,0,0,.489-.076.521.521,0,0,0,.228-.265,1.668,1.668,0,0,0,.082-.613,1.186,1.186,0,0,0-.183-.768.782.782,0,0,0-.61-.207h-.274Zm2.7-.8h2.71v.759H20.505V50h1.373v.712H20.505v1.443H19.4V48.62Z" transform="translate(-10.193 -41.091)" fill="#fff"/>
</svg>
