<svg xmlns="http://www.w3.org/2000/svg" width="18" height="20.003" viewBox="0 0 18 20.003">
  <g id="Group_2792" data-name="Group 2792" transform="translate(-74 -431.999)">
    <path id="Path_7015" data-name="Path 7015" d="M10,8h6a1,1,0,0,0,0-2H10a1,1,0,0,0,0,2Z" transform="translate(71 429.999)" fill="#0db1ff"/>
    <path id="Path_7016" data-name="Path 7016" d="M8,12h8a1,1,0,0,0,0-2H8a1,1,0,0,0,0,2Z" transform="translate(71 429.999)" fill="#0db1ff"/>
    <path id="Path_7017" data-name="Path 7017" d="M8,16h8a1,1,0,0,0,0-2H8a1,1,0,0,0,0,2Z" transform="translate(71 429.999)" fill="#0db1ff"/>
    <path id="Path_6664" data-name="Path 6664" d="M20,2H4A1,1,0,0,0,3,3V21a1,1,0,0,0,1,1,.984.984,0,0,0,.6-.2l2.07-1.55L8.73,21.8a.99.99,0,0,0,1.2,0L12,20.25l2.07,1.55a.99.99,0,0,0,1.2,0l2.06-1.55L19.4,21.8A1,1,0,0,0,21,21V3A1,1,0,0,0,20,2ZM19,19l-1.07-.8a.99.99,0,0,0-1.2,0l-2.06,1.55L12.6,18.2a.99.99,0,0,0-1.2,0L9.33,19.75,7.27,18.2a.99.99,0,0,0-1.2,0L5,19V4H19Z" transform="translate(71 429.999)" fill="#fff"/>
  </g>
</svg>
