<svg xmlns="http://www.w3.org/2000/svg" width="18" height="18" viewBox="0 0 18 18">
  <g id="Group_2793" data-name="Group 2793" transform="translate(-74 -506)">
    <path id="Path_6455" data-name="Path 6455" d="M3,3.571A2.571,2.571,0,1,1,7.141,5.608l-.054.041A2.572,2.572,0,0,1,3,3.571Z" transform="translate(73.571 505)" fill="#fff"/>
    <path id="Path_6456" data-name="Path 6456" d="M10,5.608l.054.041A2.611,2.611,0,1,0,10,5.608Z" transform="translate(75.286 505)" fill="#fff"/>
    <path id="Path_6457" data-name="Path 6457" d="M6.345,6.286A2.571,2.571,0,1,1,6,7.571,2.568,2.568,0,0,1,6.345,6.286Z" transform="translate(74.429 505.143)" fill="#0db1ff"/>
    <path id="Path_6458" data-name="Path 6458" d="M2.929,6H6.363a3.861,3.861,0,0,0,.762,3.857H6.786a3.216,3.216,0,0,0-3.028,2.132,4.844,4.844,0,0,1-1.2-.7A4.176,4.176,0,0,1,1,7.929,1.929,1.929,0,0,1,2.929,6Z" transform="translate(73 506.429)" fill="#fff"/>
    <path id="Path_6459" data-name="Path 6459" d="M10.575,9.857A3.213,3.213,0,0,1,13.6,11.989a4.828,4.828,0,0,0,1.2-.7,4.176,4.176,0,0,0,1.558-3.362A1.929,1.929,0,0,0,14.433,6H11a3.861,3.861,0,0,1-.762,3.857Z" transform="translate(75.639 506.429)" fill="#fff"/>
    <path id="Path_6460" data-name="Path 6460" d="M14.14,11.193a1.914,1.914,0,0,1,.145.735,4.176,4.176,0,0,1-1.558,3.362,5.7,5.7,0,0,1-3.585,1.138,5.7,5.7,0,0,1-3.585-1.138A4.176,4.176,0,0,1,4,11.929,1.927,1.927,0,0,1,5.929,10h6.429A1.928,1.928,0,0,1,14.14,11.193Z" transform="translate(73.857 507.571)" fill="#0db1ff"/>
  </g>
</svg>
