<svg xmlns="http://www.w3.org/2000/svg" width="18" height="21.6" viewBox="0 0 18 21.6">
  <g id="Group_2596" data-name="Group 2596" transform="translate(-74 -467.2)">
    <path id="Path_6665" data-name="Path 6665" d="M18.825,6.225,14.7,3.75l2.475,4.125L14.7,10.35h6.6V3.75Zm-8.85,14.25L14.1,22.95l-2.475-4.125L14.1,16.35H7.5v6.6Z" transform="translate(67.7 464.649)" fill="#0db1ff"/>
    <path id="Path_6666" data-name="Path 6666" d="M12.241,9.817c0-2.831-5.22-2.646-5.22-4.356,0-.827.792-1.231,1.71-1.231,1.544,0,1.819.993,2.519.993a.658.658,0,0,0,.733-.662c0-.811-1.231-1.427-2.413-1.639V2.136a.885.885,0,0,0-1.77,0v.812A2.769,2.769,0,0,0,5.4,5.59c0,2.719,5.219,2.61,5.219,4.519,0,.662-.716,1.324-1.893,1.324-1.765,0-2.353-1.2-3.069-1.2A.691.691,0,0,0,5,10.977c0,.7,1.179,1.548,2.8,1.785v.889a.886.886,0,1,0,1.772.046q0-.023,0-.046v-.884c0-.011-.005-.019-.005-.028a2.947,2.947,0,0,0,2.675-2.922m5.3,6.959H15.075c-.413,0-.736-.2-.736-.591s.324-.595.736-.595H16.8l-2.875-4.44a1.236,1.236,0,0,1-.269-.716.643.643,0,0,1,.629-.595.965.965,0,0,1,.827.5l3.216,4.835,3.218-4.835a.966.966,0,0,1,.827-.5.642.642,0,0,1,.628.595,1.226,1.226,0,0,1-.269.716l-2.875,4.44h1.725c.414,0,.737.2.737.595s-.324.591-.738.591H19.12v1.275h2.46c.414,0,.738.2.738.594s-.324.593-.738.593H19.12v2.767a.793.793,0,1,1-1.582,0V19.239H15.075c-.413,0-.736-.2-.736-.593s.324-.594.736-.594h2.462Z" transform="translate(69 465.949)" fill="#fff"/>
  </g>
</svg>
