<svg xmlns="http://www.w3.org/2000/svg" width="30.996" height="27.57" viewBox="0 0 30.996 27.57">
  <g id="Group_2785" data-name="Group 2785" transform="translate(-62.713 -595.086)">
    <g id="Group_1759" data-name="Group 1759" transform="translate(62.713 595.086)">
      <path id="Path_6165" data-name="Path 6165" d="M530.179,620.854a41.441,41.441,0,0,0,4.683-.4,10.66,10.66,0,1,0-12.536-7.352c.219.731-.039,1.077-.807,1.081s-1.558.012-2.336,0a2.035,2.035,0,0,1-2.123-2.139q-.012-1.992,0-3.984a2.055,2.055,0,0,1,2.136-2.136c.534-.007,1.07-.019,1.6.005a.5.5,0,0,0,.571-.367,11.756,11.756,0,0,1,8.716-7.3,11.986,11.986,0,0,1,13.619,7.234.574.574,0,0,0,.667.431c.533-.027,1.068-.017,1.6,0A2.048,2.048,0,0,1,548.039,608q.021,2.061,0,4.121a2.025,2.025,0,0,1-2.055,2.067c-.565.016-1.131.025-1.695,0-.318-.016-.445.11-.563.389a11.771,11.771,0,0,1-8.5,7.233,11.641,11.641,0,0,1-1.627.239c-.272.026-.375.114-.365.388a7.251,7.251,0,0,1-.028,1.006,2.292,2.292,0,0,1-2.178,2.094c-1.281.043-2.565.045-3.846,0a2.391,2.391,0,0,1,.055-4.772c.977-.03,1.954-.005,2.931-.005Z" transform="translate(-517.054 -597.992)" fill="gray"/>
      <path id="Path_6166" data-name="Path 6166" d="M530.247,619.622c.382-.36.7-.643.994-.941.509-.507.51-.788.022-1.314a7.212,7.212,0,0,1,7.527-11.79,7.22,7.22,0,0,1-2.116,14.078c-2.027.066-4.057.016-6.087.017A3.358,3.358,0,0,1,530.247,619.622Zm3.516-7.235a.685.685,0,0,0-.729-.655.669.669,0,0,0-.639.694.7.7,0,0,0,.677.669A.71.71,0,0,0,533.763,612.386Zm6.882.007a.67.67,0,0,0-.67-.664.686.686,0,0,0-.7.688.714.714,0,0,0,.677.676A.694.694,0,0,0,540.644,612.394Zm-4.108.7a.693.693,0,0,0,.659-.727.677.677,0,0,0-1.352.079A.694.694,0,0,0,536.537,613.093Z" transform="translate(-521.023 -600.334)" fill="#f2f2f2"/>
    </g>
  </g>
</svg>
