<svg xmlns="http://www.w3.org/2000/svg" width="25.432" height="25.417" viewBox="0 0 25.432 25.417">
  <g id="Group_2779" data-name="Group 2779" transform="translate(-65.892 -254.935)">
    <g id="Group_1753" data-name="Group 1753" transform="translate(65.892 254.935)">
      <path id="Path_6148" data-name="Path 6148" d="M540.431,420.66v-.187q0-4.35,0-8.7a.911.911,0,1,1,1.819-.084c0,.032,0,.065,0,.1q0,4.869,0,9.737a.911.911,0,0,1-.761.957,1.146,1.146,0,0,1-.206.013H521.675a.912.912,0,0,1-.962-.962q0-9.806,0-19.611a.913.913,0,0,1,.962-.964q4.882,0,9.764,0a.909.909,0,0,1,.935.737.887.887,0,0,1-.528,1,1.262,1.262,0,0,1-.457.077q-3.653.007-7.306,0h-1.54V420.66Z" transform="translate(-520.712 -397.076)" fill="#f2f2f2"/>
      <path id="Path_6149" data-name="Path 6149" d="M531.743,412.341a3.455,3.455,0,0,1,.116-.393q1.035-2.428,2.08-4.853a1.266,1.266,0,0,1,.261-.384q6.191-6.2,12.388-12.395a.906.906,0,0,1,1.359,0q1.38,1.373,2.755,2.752a.913.913,0,0,1,0,1.38q-1.576,1.578-3.155,3.153-4.59,4.589-9.182,9.176a1.647,1.647,0,0,1-.5.336q-2.39,1.037-4.788,2.054A.933.933,0,0,1,531.743,412.341Zm5.65-3.217,8.895-8.895-1.492-1.493-8.894,8.893Zm9.885-12.878-1.593,1.592,1.506,1.507,1.589-1.584Zm-12.057,12.473-.816,1.9,1.9-.816Z" transform="translate(-525.583 -394.01)" fill="gray"/>
    </g>
  </g>
</svg>
