<svg xmlns="http://www.w3.org/2000/svg" width="21.75" height="21.75" viewBox="0 0 21.75 21.75">
  <g id="Group_2792" data-name="Group 2792" transform="translate(-72.25 -573)">
    <rect id="Rectangle_1439" data-name="Rectangle 1439" width="1.813" height="6.193" transform="translate(77.204 583.814)" fill="#0db1ff"/>
    <rect id="Rectangle_1440" data-name="Rectangle 1440" width="1.813" height="12.688" transform="translate(87.233 577.32)" fill="#0db1ff"/>
    <rect id="Rectangle_1441" data-name="Rectangle 1441" width="1.813" height="3.565" transform="translate(82.219 586.442)" fill="#0db1ff"/>
    <rect id="Rectangle_1442" data-name="Rectangle 1442" width="1.813" height="1.813" transform="translate(82.219 582.002)" fill="#0db1ff"/>
    <path id="Path_7042" data-name="Path 7042" d="M27.206,6.544A1.739,1.739,0,0,0,25.938,6H7.813A1.858,1.858,0,0,0,6,7.813V25.938A1.858,1.858,0,0,0,7.813,27.75H25.938a1.858,1.858,0,0,0,1.813-1.812V7.813A1.739,1.739,0,0,0,27.206,6.544ZM25.938,25.938H7.813V7.813H25.938Z" transform="translate(66.25 567)" fill="#fff"/>
  </g>
</svg>
