<svg xmlns="http://www.w3.org/2000/svg" width="25.432" height="24.79" viewBox="0 0 25.432 24.79">
  <g id="Group_2781" data-name="Group 2781" transform="translate(-65.892 -364.609)">
    <g id="Group_1755" data-name="Group 1755" transform="translate(65.892 364.609)">
      <path id="Path_6152" data-name="Path 6152" d="M517.193,342.18q2.242-4.507,4.487-9.013c.229-.458.569-.657.945-.531a1.311,1.311,0,0,1,.455.317,1.207,1.207,0,0,1,.2.34q2.115,4.225,4.226,8.452a2.3,2.3,0,0,1,.157.364.825.825,0,0,1-.7,1.073,2.393,2.393,0,0,1-.346.026q-4.173,0-8.346,0a.985.985,0,0,1-1.079-.683Zm1.859-1.248a15.552,15.552,0,0,1,6.794,0c-.095-.221-.147-.358-.211-.489q-.746-1.5-1.5-2.993t-1.511-3.012a1.115,1.115,0,0,0-.168-.2c-.065.067-.132.133-.2.2a.269.269,0,0,0-.035.065q-1.518,3.037-3.036,6.074C519.151,340.667,519.121,340.759,519.052,340.932Z" transform="translate(-517.193 -325.914)" fill="gray"/>
      <path id="Path_6153" data-name="Path 6153" d="M531.609,349.14q-4.784,0-9.567,0a3.352,3.352,0,0,1-.69-.058c-.328-.07-.435-.287-.228-.542a7.367,7.367,0,0,1,1.089-1.141,12.389,12.389,0,0,1,3.993-2,18.023,18.023,0,0,1,4.158-.8c.374-.029.454-.114.454-.493q0-7.007,0-14.014c0-.091,0-.182,0-.273a.786.786,0,0,1,1.571.011c.007.091,0,.182,0,.273v13.94c0,.483.037.52.508.56a16.88,16.88,0,0,1,6.819,1.954,6.978,6.978,0,0,1,2.227,1.757c.134.172.334.356.216.593s-.374.21-.6.223c-.149.009-.3.014-.447.014Z" transform="translate(-518.885 -324.35)" fill="#f2f2f2"/>
      <path id="Path_6154" data-name="Path 6154" d="M518.606,325.956a.794.794,0,0,1-.821-.7.764.764,0,0,1,.63-.851c.512-.1,1.028-.172,1.542-.256q3.894-.636,7.786-1.273c.544-.09.543-.1.618-.646a1.827,1.827,0,0,1,3.521-.447c.159.387.16.394.575.326q3.723-.6,7.444-1.215c.6-.1,1.206-.212,1.814-.281a.78.78,0,0,1,.155,1.552l-4.554.744-7.126,1.163L522.7,325.3l-3.8.62C518.789,325.935,518.674,325.947,518.606,325.956Z" transform="translate(-517.453 -320.609)" fill="#f2f2f2"/>
      <path id="Path_6155" data-name="Path 6155" d="M549.232,337.95q-2.062,0-4.125,0a2.6,2.6,0,0,1-.4-.028.824.824,0,0,1-.681-1.084,2.277,2.277,0,0,1,.147-.341q2.118-4.239,4.239-8.476a2.384,2.384,0,0,1,.2-.343.751.751,0,0,1,1.259.013,2.694,2.694,0,0,1,.2.344q2.1,4.193,4.194,8.388l.034.066c.437.878.072,1.462-.917,1.462Q551.307,337.952,549.232,337.95Zm-3.186-2.318c.318-.06.568-.115.821-.154a15.036,15.036,0,0,1,5.237.09,1.983,1.983,0,0,0,.426-.006,2.466,2.466,0,0,0-.124-.41q-1.425-2.865-2.864-5.723a2.221,2.221,0,0,0-.3-.369,1.96,1.96,0,0,0-.3.359q-1.469,2.912-2.922,5.832c-.026.051-.071.11-.063.158A.972.972,0,0,0,546.047,335.632Z" transform="translate(-529.049 -323.588)" fill="gray"/>
    </g>
  </g>
</svg>
