<svg xmlns="http://www.w3.org/2000/svg" width="30.996" height="27.519" viewBox="0 0 30.996 27.519">
  <g id="Group_2786" data-name="Group 2786" transform="translate(-62.713 -650.719)">
    <g id="Group_1760" data-name="Group 1760" transform="translate(62.713 650.719)">
      <path id="Path_6167" data-name="Path 6167" d="M520.77,675.517c0-1.622-.022-3.245.012-4.866a.914.914,0,0,0-.6-.967,4.9,4.9,0,0,1-2.846-4.576,4.842,4.842,0,0,1,2.818-4.583.971.971,0,0,0,.63-1.05c-.038-.978-.027-1.959,0-2.938a1.671,1.671,0,0,1,1.632-1.742,1.606,1.606,0,0,1,1.755,1.6c.065,1.067-.008,2.143.057,3.211a1.16,1.16,0,0,0,.5.816,5.062,5.062,0,0,1,2.886,4.653,4.893,4.893,0,0,1-2.878,4.636.94.94,0,0,0-.536,1.023q.014,4.544,0,9.089a6.768,6.768,0,0,1-.048,1.006,1.616,1.616,0,0,1-1.8,1.447,1.638,1.638,0,0,1-1.561-1.619c-.033-1.713-.01-3.427-.01-5.141Zm.011-10.394a1.675,1.675,0,0,0,1.758,1.689,1.754,1.754,0,0,0,1.686-1.708,1.831,1.831,0,0,0-1.753-1.764A1.735,1.735,0,0,0,520.781,665.123Z" transform="translate(-517.332 -654.763)" fill="gray"/>
      <path id="Path_6168" data-name="Path 6168" d="M554.445,658.123a4.779,4.779,0,0,1,0,.551,1.94,1.94,0,0,0,1.106,2.163,5.052,5.052,0,0,1-.3,8.719,1.339,1.339,0,0,0-.818,1.4c.039,3.091.02,6.183.016,9.274,0,1.3-.63,2.048-1.695,2.052-1.087,0-1.718-.71-1.724-2.029-.015-3.122-.02-6.244.007-9.366a1.22,1.22,0,0,0-.727-1.283,5.122,5.122,0,0,1,0-9.022,1.18,1.18,0,0,0,.726-1.276c-.036-.916-.038-1.837,0-2.753a1.656,1.656,0,0,1,1.8-1.758,1.7,1.7,0,0,1,1.609,1.86C554.452,657.144,554.444,657.633,554.445,658.123Zm-.011,6.945a1.734,1.734,0,0,0-1.747-1.728,1.835,1.835,0,0,0-1.7,1.727,1.756,1.756,0,0,0,1.742,1.745A1.671,1.671,0,0,0,554.434,665.068Z" transform="translate(-526.908 -654.763)" fill="gray"/>
      <path id="Path_6169" data-name="Path 6169" d="M539.3,662.46c0,1.866.016,3.732-.008,5.6a.994.994,0,0,0,.617,1.063,5.137,5.137,0,0,1,.054,9.119,1.009,1.009,0,0,0-.673,1.118,6.357,6.357,0,0,1-.015,1.374,1.652,1.652,0,0,1-1.74,1.536,1.515,1.515,0,0,1-1.618-1.53c.138-1.506-.494-2.285-1.665-3.2a5.011,5.011,0,0,1,.92-8.368,1.137,1.137,0,0,0,.7-1.2c-.026-3.7-.005-7.4-.018-11.1a1.85,1.85,0,0,1,1.137-2,1.7,1.7,0,0,1,2.3,1.72C539.328,658.545,539.3,660.5,539.3,662.46Zm.012,11.232a1.731,1.731,0,1,0-3.461.04,1.731,1.731,0,0,0,3.461-.04Z" transform="translate(-522.098 -654.749)" fill="#f2f2f2"/>
    </g>
  </g>
</svg>
