<svg id="settings-gears" xmlns="http://www.w3.org/2000/svg" width="27.22" height="27.215" viewBox="0 0 27.22 27.215">
  <path id="Path_6080" data-name="Path 6080" d="M3.016,21.33a11.181,11.181,0,0,0,1,2.375L2.809,25.227A1.249,1.249,0,0,0,2.9,26.882l2.079,2.079a1.244,1.244,0,0,0,1.655.094l1.512-1.2A10.989,10.989,0,0,0,10.618,28.9l.227,1.946a1.246,1.246,0,0,0,1.237,1.1h2.941a1.246,1.246,0,0,0,1.237-1.1l.217-1.877A11.115,11.115,0,0,0,19.121,27.9l1.463,1.158a1.249,1.249,0,0,0,1.655-.094l2.079-2.079a1.244,1.244,0,0,0,.094-1.655l-1.138-1.444a10.857,10.857,0,0,0,1.089-2.6l1.754-.2a1.246,1.246,0,0,0,1.1-1.237V16.807a1.246,1.246,0,0,0-1.1-1.237l-1.729-.2A10.928,10.928,0,0,0,23.344,12.8l1.064-1.345A1.25,1.25,0,0,0,24.314,9.8L22.24,7.723a1.244,1.244,0,0,0-1.655-.094L19.279,8.664a10.965,10.965,0,0,0-2.7-1.133l-.2-1.69a1.246,1.246,0,0,0-1.237-1.1H12.2a1.246,1.246,0,0,0-1.237,1.1l-.2,1.69A10.919,10.919,0,0,0,7.992,8.7L6.637,7.629a1.249,1.249,0,0,0-1.655.094L2.9,9.8a1.244,1.244,0,0,0-.094,1.655l1.133,1.434a10.717,10.717,0,0,0-1.025,2.6L1.1,15.694A1.246,1.246,0,0,0,0,16.931v2.941a1.246,1.246,0,0,0,1.1,1.237Zm10.656-7.957A4.863,4.863,0,1,1,8.81,18.236,4.87,4.87,0,0,1,13.672,13.374Z" transform="translate(-0.001 -4.737)" fill="#fff"/>
</svg>
