<svg id="Group_2001" data-name="Group 2001" xmlns="http://www.w3.org/2000/svg" width="22.47" height="22.47" viewBox="0 0 22.47 22.47">
  <g id="Group_1773" data-name="Group 1773" transform="translate(0 0)" opacity="0.4" style="mix-blend-mode: multiply;isolation: isolate">
    <circle id="Ellipse_510" data-name="Ellipse 510" cx="7.448" cy="7.448" r="7.448" transform="translate(0 7.573)" fill="#fff"/>
    <circle id="Ellipse_511" data-name="Ellipse 511" cx="7.448" cy="7.448" r="7.448" transform="translate(0.103 7.471) rotate(-0.324)" fill="#fafdf7"/>
    <circle id="Ellipse_512" data-name="Ellipse 512" cx="7.448" cy="7.448" r="7.448" transform="matrix(1, -0.012, 0.012, 1, 0.203, 7.371)" fill="#f5fcef"/>
    <circle id="Ellipse_513" data-name="Ellipse 513" cx="7.448" cy="7.448" r="7.448" transform="matrix(1, -0.018, 0.018, 1, 0.3, 7.276)" fill="#effae7"/>
    <circle id="Ellipse_514" data-name="Ellipse 514" cx="7.448" cy="7.448" r="7.448" transform="matrix(1, -0.025, 0.025, 1, 0.394, 7.184)" fill="#eaf8df"/>
    <circle id="Ellipse_515" data-name="Ellipse 515" cx="7.448" cy="7.448" r="7.448" transform="translate(0.485 7.096) rotate(-1.869)" fill="#e5f6d7"/>
    <circle id="Ellipse_516" data-name="Ellipse 516" cx="7.448" cy="7.448" r="7.448" transform="matrix(0.999, -0.041, 0.041, 0.999, 0.572, 7.014)" fill="#e0f5d0"/>
    <circle id="Ellipse_517" data-name="Ellipse 517" cx="7.448" cy="7.448" r="7.448" transform="matrix(0.999, -0.049, 0.049, 0.999, 0.654, 6.937)" fill="#daf3c8"/>
    <circle id="Ellipse_518" data-name="Ellipse 518" cx="7.448" cy="7.448" r="7.448" transform="translate(0.732 6.867) rotate(-3.379)" fill="#d5f1c0"/>
    <circle id="Ellipse_519" data-name="Ellipse 519" cx="7.448" cy="7.448" r="7.448" transform="translate(0.805 6.804) rotate(-3.971)" fill="#d0efb8"/>
    <circle id="Ellipse_520" data-name="Ellipse 520" cx="7.448" cy="7.448" r="7.448" transform="translate(0.872 6.749) rotate(-4.617)" fill="#cbeeb0"/>
    <circle id="Ellipse_521" data-name="Ellipse 521" cx="7.448" cy="7.448" r="7.448" transform="translate(0.934 6.704) rotate(-5.324)" fill="#c6eca8"/>
    <circle id="Ellipse_522" data-name="Ellipse 522" cx="7.448" cy="7.448" r="7.448" transform="matrix(0.994, -0.106, 0.106, 0.994, 0.988, 6.67)" fill="#c0eaa0"/>
    <circle id="Ellipse_523" data-name="Ellipse 523" cx="7.448" cy="7.448" r="7.448" transform="matrix(0.993, -0.121, 0.121, 0.993, 1.035, 6.648)" fill="#bbe898"/>
    <circle id="Ellipse_524" data-name="Ellipse 524" cx="7.448" cy="7.448" r="7.448" transform="translate(1.074 6.64) rotate(-7.894)" fill="#b6e790"/>
    <circle id="Ellipse_525" data-name="Ellipse 525" cx="7.448" cy="7.448" r="7.448" transform="translate(1.105 6.649) rotate(-8.937)" fill="#b1e588"/>
    <circle id="Ellipse_526" data-name="Ellipse 526" cx="7.448" cy="7.448" r="7.448" transform="translate(1.126 6.678) rotate(-10.095)" fill="#abe381"/>
    <circle id="Ellipse_527" data-name="Ellipse 527" cx="7.448" cy="7.448" r="7.448" transform="translate(1.138 6.729) rotate(-11.382)" fill="#a6e179"/>
    <circle id="Ellipse_528" data-name="Ellipse 528" cx="7.448" cy="7.448" r="7.448" transform="matrix(0.975, -0.222, 0.222, 0.975, 1.139, 6.805)" fill="#a1e071"/>
    <circle id="Ellipse_529" data-name="Ellipse 529" cx="7.448" cy="7.448" r="7.448" transform="translate(1.131 6.912) rotate(-14.417)" fill="#9cde69"/>
    <circle id="Ellipse_530" data-name="Ellipse 530" cx="7.448" cy="7.448" r="7.448" transform="translate(1.113 7.052) rotate(-16.201)" fill="#96dc61"/>
    <circle id="Ellipse_531" data-name="Ellipse 531" cx="7.448" cy="7.448" r="7.448" transform="translate(1.088 7.23) rotate(-18.187)" fill="#91da59"/>
    <circle id="Ellipse_532" data-name="Ellipse 532" cx="7.448" cy="7.448" r="7.448" transform="translate(1.057 7.449) rotate(-20.386)" fill="#8cd951"/>
    <circle id="Ellipse_533" data-name="Ellipse 533" cx="7.448" cy="7.448" r="7.448" transform="matrix(0.922, -0.388, 0.388, 0.922, 1.025, 7.713)" fill="#87d749"/>
    <circle id="Ellipse_534" data-name="Ellipse 534" cx="7.448" cy="7.448" r="7.448" transform="translate(0.997 8.021) rotate(-25.445)" fill="#82d541"/>
    <circle id="Ellipse_535" data-name="Ellipse 535" cx="7.448" cy="7.448" r="7.448" transform="matrix(0.881, -0.474, 0.474, 0.881, 0.98, 8.372)" fill="#7cd339"/>
    <circle id="Ellipse_536" data-name="Ellipse 536" cx="7.448" cy="7.448" r="7.448" transform="translate(0.679 11.258) rotate(-45)" fill="#77d232"/>
    <circle id="Ellipse_537" data-name="Ellipse 537" cx="7.448" cy="7.448" r="7.448" transform="translate(0.824 11.113) rotate(-45)" fill="#72d02a"/>
    <circle id="Ellipse_538" data-name="Ellipse 538" cx="7.448" cy="7.448" r="7.448" transform="translate(0.969 10.968) rotate(-45)" fill="#6dce22"/>
    <circle id="Ellipse_539" data-name="Ellipse 539" cx="7.448" cy="7.448" r="7.448" transform="translate(1.113 10.823) rotate(-45)" fill="#67cc1a"/>
    <circle id="Ellipse_540" data-name="Ellipse 540" cx="7.448" cy="7.448" r="7.448" transform="translate(1.258 10.678) rotate(-45)" fill="#62cb12"/>
    <circle id="Ellipse_541" data-name="Ellipse 541" cx="7.448" cy="7.448" r="7.448" transform="translate(1.403 10.534) rotate(-45)" fill="#5dc90a"/>
  </g>
  <g id="Group_1774" data-name="Group 1774" transform="translate(1.403 0)">
    <circle id="Ellipse_542" data-name="Ellipse 542" cx="7.448" cy="7.448" r="7.448" transform="translate(0 10.534) rotate(-45)" fill="#5dc90a"/>
    <path id="Path_6175" data-name="Path 6175" d="M72.39,38.759A7.605,7.605,0,1,1,80,31.154,7.614,7.614,0,0,1,72.39,38.759Zm0-14.9a7.292,7.292,0,1,0,7.292,7.292A7.3,7.3,0,0,0,72.39,23.863Z" transform="translate(-61.857 -20.62)" fill="#fff"/>
  </g>
  <g id="Group_1776" data-name="Group 1776" transform="translate(6.937 6.873)">
    <g id="Group_1775" data-name="Group 1775">
      <path id="Path_6176" data-name="Path 6176" d="M86.31,57.854l-3.173-3.173,1.142-1.142,2.032,2.032,5.132-5.132,1.142,1.142Z" transform="translate(-82.866 -50.168)" fill="#fff"/>
      <path id="Path_6177" data-name="Path 6177" d="M84.854,56.668,81.41,53.224l1.412-1.412,2.032,2.032,5.132-5.132L91.4,50.124Zm-2.9-3.444,2.9,2.9,6-6-.871-.871-5.132,5.132-2.032-2.032Z" transform="translate(-81.41 -48.712)" fill="#fff"/>
    </g>
  </g>
</svg>
