<svg xmlns="http://www.w3.org/2000/svg" width="21.5" height="21.5" viewBox="0 0 21.5 21.5">
  <g id="Group_2559" data-name="Group 2559" transform="translate(-72.25 -534.25)">
    <path id="Path_6653" data-name="Path 6653" d="M469.53,445.56a1.964,1.964,0,0,0-.139-.764,1.787,1.787,0,0,0-.424-.616,2.367,2.367,0,0,0-.708-.433,3.04,3.04,0,0,0-.347-.1c-.143-.035-.3-.073-.437-.115v-2.063a.994.994,0,0,1,.437.254,1.244,1.244,0,0,1,.289.66l.022.132,1.156-.165-.02-.136a1.954,1.954,0,0,0-.737-1.3,2.093,2.093,0,0,0-1.144-.432v-.416h-.839v.418a2.218,2.218,0,0,0-1.19.459,1.965,1.965,0,0,0-.422,2.443,1.571,1.571,0,0,0,.644.651,4.488,4.488,0,0,0,.968.374v2.305a1.223,1.223,0,0,1-.578-.4,1.868,1.868,0,0,1-.3-.893l-.021-.138-1.107.2.009.122a2.293,2.293,0,0,0,.368,1.131,1.83,1.83,0,0,0,.7.68,3.91,3.91,0,0,0,.925.262v.6h.839v-.6a2.337,2.337,0,0,0,1.439-.633A2.043,2.043,0,0,0,469.53,445.56Zm-1.165.052a1.092,1.092,0,0,1-.289.776,1.266,1.266,0,0,1-.6.337V444.6a1.287,1.287,0,0,1,.7.39A.924.924,0,0,1,468.365,445.613Zm-2.249-3.846a1.149,1.149,0,0,1,.516-.3v1.864a1.664,1.664,0,0,1-.544-.33.867.867,0,0,1-.189-.6A.85.85,0,0,1,466.116,441.766Z" transform="translate(-384.043 100.836)" fill="#0db1ff"/>
    <path id="Path_6654" data-name="Path 6654" d="M389.1,377.86h-1.779a8.718,8.718,0,0,0-7.994-7.943V368.1h-1.473v1.829A8.718,8.718,0,0,0,370,377.86h-1.9v1.473h1.894a8.717,8.717,0,0,0,7.86,7.944V389.1h1.473v-1.811a8.716,8.716,0,0,0,7.995-7.956H389.1Zm-11.246,6.445v1.544a7.241,7.241,0,0,1-6.407-6.517h1.448V377.86h-1.435a7.242,7.242,0,0,1,6.4-6.4v1.433h1.473v-1.442a7.225,7.225,0,0,1,6.486,6.408h-1.507v1.473h1.519a7.241,7.241,0,0,1-6.5,6.526v-1.554Z" transform="translate(-295.6 166.4)" fill="#fff"/>
    <path id="Path_6654_-_Outline" data-name="Path 6654 - Outline" d="M377.6,367.85h1.973v1.839a8.97,8.97,0,0,1,7.97,7.922h1.8v1.973h-1.8a8.968,8.968,0,0,1-7.972,7.935v1.832H377.6V387.5a8.969,8.969,0,0,1-7.837-7.919H367.85V377.61h1.919A8.97,8.97,0,0,1,377.6,369.7Zm1.473.5H378.1v1.807l-.227.021a8.436,8.436,0,0,0-7.633,7.7l-.019.229H368.35v.973h1.874l.019.229a8.434,8.434,0,0,0,7.634,7.716l.227.021v1.8h.973v-1.792l.231-.018a8.514,8.514,0,0,0,7.765-7.727l.019-.229h1.758v-.973h-1.759l-.019-.229a8.519,8.519,0,0,0-7.764-7.715l-.231-.018Zm0,2.828.273.026a7.475,7.475,0,0,1,6.711,6.63l.03.277h-1.536v.973H386.1l-.025.273a7.479,7.479,0,0,1-6.723,6.752l-.274.026v-1.579H378.1v1.573l-.277-.03a7.5,7.5,0,0,1-6.629-6.742l-.025-.273h1.472v-.973H371.18l.03-.277a7.492,7.492,0,0,1,6.617-6.62l.277-.03v1.461h.973Zm6.452,6.433a6.979,6.979,0,0,0-5.952-5.878v1.412H377.6v-1.4a7.023,7.023,0,0,0-5.86,5.864h1.4v1.973h-1.418a7,7,0,0,0,5.877,5.982v-1.51h1.973v1.523a6.98,6.98,0,0,0,5.968-6h-1.49V377.61Z" transform="translate(-295.6 166.4)" fill="#fff"/>
  </g>
</svg>
