<svg xmlns="http://www.w3.org/2000/svg" width="30.996" height="30.992" viewBox="0 0 30.996 30.992">
  <g id="Group_2783" data-name="Group 2783" transform="translate(-62.713 -472.695)">
    <g id="Group_1757" data-name="Group 1757" transform="translate(62.713 472.695)">
      <path id="Path_6160" data-name="Path 6160" d="M73.5,1088.112a2.913,2.913,0,0,0,4.078,4.16,1.027,1.027,0,0,1,.117.09c1.033,1.047,2.068,2.091,3.094,3.145a.823.823,0,0,1,0,1.283c-1.679,1.719-3.35,3.444-5.05,5.142q-6.292,6.286-12.608,12.549c-.311.31-.631.611-.952.911a.8.8,0,0,1-1.118.019c-.908-.87-1.8-1.755-2.7-2.633-.214-.209-.432-.412-.661-.63.071-.089.118-.151.168-.21a2.763,2.763,0,0,0,.481-2.884,2.715,2.715,0,0,0-2.233-1.83,2.664,2.664,0,0,0-2.337.652c-.138.123-.215.111-.338-.016q-1.519-1.558-3.051-3.1a.828.828,0,0,1-.049-1.207c1.524-1.562,3.039-3.134,4.583-4.677q6.629-6.627,13.278-13.234c.245-.244.5-.482.75-.717a.838.838,0,0,1,1.259,0c.989.959,1.966,1.929,2.951,2.893C73.263,1087.921,73.38,1088.009,73.5,1088.112Zm-5.184,1.874-.019.047a.776.776,0,0,0-.659.261q-3.512,3.5-7.033,7c-1.634,1.632-3.248,3.284-4.883,4.915a.745.745,0,0,0,0,1.043c2.252,2.237,4.489,4.49,6.735,6.734a.683.683,0,0,0,1.08-.007q3.951-3.927,7.9-7.859c1.361-1.359,2.7-2.736,4.055-4.106a.652.652,0,0,0,.145-.784,1.652,1.652,0,0,0-.29-.352q-3.342-3.364-6.692-6.721A1.245,1.245,0,0,0,68.318,1089.986Z" transform="translate(-50.101 -1084.639)" fill="gray"/>
      <path id="Path_6161" data-name="Path 6161" d="M230.282,1274.823l10.9-10.961,5.7,5.765-10.9,10.9Z" transform="translate(-223.086 -1256.704)" fill="#f2f2f2"/>
    </g>
  </g>
</svg>
