<svg xmlns="http://www.w3.org/2000/svg" width="70.324" height="43.999" viewBox="0 0 70.324 43.999">
  <path id="Path_6220" data-name="Path 6220" d="M281.926,494.034a7.237,7.237,0,0,0-3.009-5.426,12.217,12.217,0,0,0-3.023-1.541,15.147,15.147,0,0,0-2.687-1.011.745.745,0,0,1-.6-.33.879.879,0,0,1,.124-.853,7.343,7.343,0,0,0,2.563-3.2c.066-.158.344-.27.544-.322a3.527,3.527,0,0,0,1.845-5.829,1.7,1.7,0,0,1-.336-1.025,11.273,11.273,0,0,0-.824-5.04,8.911,8.911,0,0,0-13.05-3.327,8.653,8.653,0,0,0-2.826,3.5,9.717,9.717,0,0,0-.72,4.592,2.022,2.022,0,0,1-.512,1.521,3.464,3.464,0,0,0,1.863,5.559,1.136,1.136,0,0,1,.913.77,6.381,6.381,0,0,0,2.16,2.652,1.067,1.067,0,0,1,.419.718c0,.168-.326.4-.552.5-.919.392-1.865.722-2.785,1.112a.848.848,0,0,1-.952-.16,18.888,18.888,0,0,0-2.922-1.8c-1.818-.826-3.708-1.5-5.555-2.262a.973.973,0,0,1-.56-.581c-.056-.419-.178-.892.355-1.222a7.622,7.622,0,0,0,3.114-3.8,1.085,1.085,0,0,1,.687-.566,4.115,4.115,0,0,0,2.166-7.045,1.392,1.392,0,0,1-.3-.884,17.8,17.8,0,0,0-.495-5.4c-2.674-7.964-13.892-9.482-18.79-2.778q-.067.092-.132.185c-1.613,2.315-1.673,5.235-1.746,7.952a1.8,1.8,0,0,1-.434,1.054,4.035,4.035,0,0,0-.973,4.059,3.77,3.77,0,0,0,3.083,2.783,1.233,1.233,0,0,1,1.066.9,6.773,6.773,0,0,0,2.774,3.4,1.089,1.089,0,0,1,.573,1.343,1.4,1.4,0,0,1-.774.668c-1.9.778-3.839,1.455-5.712,2.289a16.137,16.137,0,0,0-2.718,1.7.828.828,0,0,1-.946.18c-.915-.4-1.855-.745-2.78-1.129-.629-.261-.706-.739-.147-1.131a6.84,6.84,0,0,0,2.4-2.94,1,1,0,0,1,.591-.486,3.519,3.519,0,0,0,1.855-5.864,1.717,1.717,0,0,1-.311-.886,24.919,24.919,0,0,0-.423-3.955c-2.133-7.559-13.482-8.207-16.37-.837a9.76,9.76,0,0,0-.634,3.285c-.029,1.027.117,1.861-.567,2.728a3.452,3.452,0,0,0,1.965,5.474,1.069,1.069,0,0,1,.859.728,6.429,6.429,0,0,0,2.087,2.616c.245.191.573.7.506.793a1.953,1.953,0,0,1-.944.631l-2.917,1.15c-.415.17-.72.3-1.027.421a6.894,6.894,0,0,0-4.635,6.163c-.139,1.71-.087,3.442-.056,5.162.015.932.556,1.34,1.608,1.34q11.527.006,23.053,0c1.017,0,1.594-.483,1.573-1.28-.021-.764-.571-1.191-1.569-1.2-1.123-.008-2.247,0-3.44,0,0-1.714-.089-3.355.021-4.984a5.832,5.832,0,0,1,3.712-5.316c1.841-.78,3.729-1.453,5.582-2.208a.738.738,0,0,1,.94.2c.828.844,1.681,1.662,2.533,2.482.9.869,1.5.865,2.361-.015.77-.791,1.562-1.567,2.285-2.4a.915.915,0,0,1,1.251-.251c1.6.687,3.22,1.347,4.853,1.961a6.166,6.166,0,0,1,4.283,6.119c.039,1.45.008,2.9.008,4.409H241.363c-1.405,0-1.984.371-1.967,1.259.017.861.589,1.222,1.936,1.222H269.4q5.475,0,10.948,0c1.079,0,1.6-.438,1.612-1.419C281.978,497.271,282.032,495.646,281.926,494.034Zm-20.37-15.473a.741.741,0,0,1,0-1.291Zm-6.08-7.418a1.388,1.388,0,0,1,1.079,1.332,1.54,1.54,0,0,1-1.079,1.637Zm-17.121,2.938a1.4,1.4,0,0,1-1.135-1.4,1.482,1.482,0,0,1,1.135-1.573Zm-20.3,4.474c-.075,0-.151,0-.226.008v-1.3l.226-.006Zm.9-4.824a5.876,5.876,0,0,1,2.573-5.613,6.393,6.393,0,0,1,7.057-.127,5.905,5.905,0,0,1,2.712,5.708,2.654,2.654,0,0,1-1.843-1.471,10.4,10.4,0,0,1-.539-1.27,1.215,1.215,0,0,0-2.141-.456C224.736,472.95,221.975,473.556,218.949,473.732Zm1.67,5.939c-.052-1.148-.012-2.3-.012-3.536a13.141,13.141,0,0,0,6.513-2.475c.859.737,1.618,1.369,2.345,2.035a.892.892,0,0,1,.232.587c.021,1.077.033,2.154,0,3.231a3.921,3.921,0,0,1-3.735,3.861,5.212,5.212,0,0,1-3.749-.761A3.818,3.818,0,0,1,220.618,479.671Zm4.534,8.364c-.542-.708-1.564-.979-1.284-2.141h2.573C226.622,486.979,225.574,487.242,225.153,488.035Zm5.212,9.765H214.189a16.945,16.945,0,0,1,.3-4.974,4.163,4.163,0,0,1,2.449-2.7q2.163-.9,4.368-1.7a1.014,1.014,0,0,1,.842.189c.679.587,1.291,1.247,1.946,1.863a1.306,1.306,0,0,0,2.081-.01c.639-.631,1.235-1.3,1.882-1.928a.791.791,0,0,1,.637-.224c.863.3,1.7.666,2.616,1.037C229.982,492.071,230.546,494.942,230.364,497.8Zm8.478-29.983c-.255-3.227.674-6,3.465-7.783a8.074,8.074,0,0,1,9.155-.015c2.8,1.772,3.741,4.538,3.484,7.791-1.969-.361-2.9-1.737-3.5-3.43-.2-.571-.386-1.123-1.085-1.259-.726-.139-1.129.3-1.535.8a10.474,10.474,0,0,1-6.237,3.364C241.369,467.545,240.112,467.642,238.842,467.818Zm8.061,17.9c-.869-1.11-2.492-1.637-1.878-3.459h3.82C249.323,484.065,247.575,484.512,246.9,485.721Zm1.486-6.015c-2.017.257-4.017.241-5.671-1.245a4.874,4.874,0,0,1-1.764-3.548c-.048-1.585-.01-3.173-.01-4.822a15.67,15.67,0,0,0,8.733-3.449,7.444,7.444,0,0,0,3.005,3.042.646.646,0,0,1,.253.494c-.01,1.643.039,3.291-.1,4.924A5.043,5.043,0,0,1,248.389,479.706Zm14.043-5.976a5.894,5.894,0,0,1,2.66-5.661,6.379,6.379,0,0,1,7.055-.025,5.848,5.848,0,0,1,2.625,5.644,2.57,2.57,0,0,1-1.841-1.471,8.451,8.451,0,0,1-.513-1.2,1.232,1.232,0,0,0-2.222-.452C268.169,472.975,265.43,473.558,262.432,473.73Zm1.675,5.938c-.056-1.149-.012-2.3-.012-3.542a13.19,13.19,0,0,0,6.526-2.463c.838.722,1.631,1.386,2.4,2.081a.816.816,0,0,1,.172.542c.014,1.077.029,2.154-.006,3.229a3.877,3.877,0,0,1-3.737,3.847,8.711,8.711,0,0,1-2.507-.168A3.762,3.762,0,0,1,264.107,479.667Zm4.55,8.422c-.531-.774-1.583-1.013-1.3-2.172h2.587C270.126,487.016,269,487.226,268.657,488.089Zm10.723,9.69H263.308c-.172-2.83.357-5.7-.955-8.414.907-.361,1.751-.724,2.617-1.017a.825.825,0,0,1,.647.232c.664.6,1.289,1.253,1.942,1.87a1.319,1.319,0,0,0,2.137-.012c.62-.616,1.191-1.284,1.838-1.868a.993.993,0,0,1,.838-.178q2.128.782,4.22,1.672a4.261,4.261,0,0,1,2.77,3.76C279.457,495.119,279.38,496.426,279.38,497.779Z" transform="translate(-211.665 -456.314)" fill="#0db1ff"/>
</svg>
